# xmcd
#
# Track frame offsets:
#	150
#	13602
#	26910
#	45935
#	57505
#	70915
#	85615
#	101502
#	120642
#	135040
#	152170
#	164880
#	177627
#	190410
#
# Disc length: 2723 seconds
#
# Revision: 3
# Processed by: cddbd v1.5.2PL0 Copyright (c) Steve Scherf et al.
# Submitted via: audiograbber 1.83.01
#
DISCID=ba0aa10e
DTITLE=Various Artist - Hot Hits Country Vol. 06
DYEAR=1993
DGENRE=Country
TTITLE0=Mark Chesnutt - It Sure Is Monday
TTITLE1=Mark Collie - Shame, Shame, Shame, Shame
TTITLE2=Lorrie Morgan - I Guess You Had To Be There
TTITLE3=Larry Stewart - Alright Already
TTITLE4=Brooks and Dunn - We'll Burn That Bridge
TTITLE5=Pam Tillis - Cleopatra Queen Of Denial
TTITLE6=Toby Keith - Should've Been A Cowboy
TTITLE7=Confederate Railroad - When You Leave That Way You Can Never Go Back
TTITLE8=Reba McEntire - It' Your Call
TTITLE9=Marty Brown - It Must Be The Rain
TTITLE10=Sammy Kershaw - Haunted Heart
TTITLE11=Bobert Ellis Orrall - A Little Bit Of Her Love
TTITLE12=George Strait - When Did You Stop Loving Me
TTITLE13=Celinda Pink - Pack Your Lies and Go
EXTD=
EXTT0=Chesnutt - Mark
EXTT1=Collie - Mark
EXTT2=Morgan - Lorrie
EXTT3=Stuart - Larry
EXTT4=Brooks and Dunn
EXTT5=Tillis - Pam
EXTT6=Keith - Toby
EXTT7=Confederate Railroad
EXTT8=McEntire - Rebe
EXTT9=Brown - Marty
EXTT10=Kershaw - Sammy
EXTT11=Orrall - Robert Ellis
EXTT12=Strait - George
EXTT13=Pink - Celinda
PLAYORDER=
